# xmcd
#
# Track frame offsets:
#	150
#	17450
#	34501
#	46204
#	60067
#	71265
#	84186
#	101663
#	112613
#	125405
#	140515
#	154322
#	172229
#	187495
#	200166
#	216070
#	230616
#	243048
#	254935
#
# Disc length: 3624 seconds
#
# Revision: 4
# Processed by: cddbd v1.5.1PL0 Copyright (c) Steve Scherf et al.
# Submitted via: audiograbber 1.83.01
#
DISCID=050e2613
DTITLE=2004-10 Country Radio - 2004-10 Country Radio
DYEAR=2004
DGENRE=Country
TTITLE0=Tracy Byrd - Revenge Of A Middle-Aged Woman
TTITLE1=Big and Rich - Holy Water
TTITLE2=Josh Gracin - Nothin' To Lose
TTITLE3=Brad Paisley - Mud On The Tires
TTITLE4=Tracy Lawrence - Sawdust On Her Halo
TTITLE5=LeAnn Rimes - Nothin' Bout Love Makes Sense
TTITLE6=Pat Green - Don't Break My Heart Again
TTITLE7=Willie Nelson Feat. Toby Keith - Midnight Rider
TTITLE8=Amy Dalley - Living Together
TTITLE9=Chad Brock - That Changed Me
TTITLE10=Jeff Bates - Long, Slow Kisses
TTITLE11=Jeffrey Steele - Once A Cowboy
TTITLE12=Donovan Chapman - Good Problem To Have
TTITLE13=Chris Campbell - Honky Tonk Lover
TTITLE14=Miranda Lambert - Me and Charlie Talking
TTITLE15=Dusty Drake - I Am The Working Man
TTITLE16=Shelly Fairchild - You Don't Lie Here Anymore
TTITLE17=Merle Haggard Feat. Freddy Powers - Ol' Country Singer
TTITLE18=Jill King - Three Months, Two Weeks, One Day
EXTD=
EXTT0=
EXTT1=
EXTT2=
EXTT3=
EXTT4=
EXTT5=
EXTT6=
EXTT7=
EXTT8=
EXTT9=
EXTT10=
EXTT11=
EXTT12=
EXTT13=
EXTT14=
EXTT15=
EXTT16=
EXTT17=
EXTT18=
PLAYORDER=
